<?xml version="1.0" ?><!DOCTYPE svg  PUBLIC '-//W3C//DTD SVG 1.0//EN'  'http://www.w3.org/TR/2001/REC-SVG-20010904/DTD/svg10.dtd'><svg enable-background="new 0 0 100 100" height="100px" id="Layer_1" version="1.0" viewBox="0 0 100 100" width="100px" xml:space="preserve" xmlns="http://www.w3.org/2000/svg" xmlns:xlink="http://www.w3.org/1999/xlink"><path d="M55.454,77.272c0,3.015-2.447,5.454-5.454,5.454c-3.012,0-5.454-2.439-5.458-5.454  c0.003-3.015,2.445-5.454,5.455-5.454C53.013,71.818,55.451,74.258,55.454,77.272z" fill="#616161"/><path d="M74.572,56.549l5.142-5.151c-6.181-6.178-13.828-10.02-21.828-11.539L74.572,56.549z" fill="#616161"/><path d="M49.881,31.849c12.661-0.031,25.336,4.771,34.977,14.408L90,41.115  c-12.815-12.813-30.251-18.146-46.946-16.09L49.881,31.849z" fill="#616161"/><rect fill="#FF5722" height="75.008" transform="matrix(-0.7071 0.7071 -0.7071 -0.7071 116.3707 44.5252)" width="7.271" x="45.328" y="8.86"/><path d="M51.165,53.708c-7.421-0.312-14.942,2.326-20.596,7.979l5.143,5.144c7.876-7.885,20.699-7.878,28.574,0  L51.165,53.708z" fill="#616161"/><path d="M38.29,40.83c-6.592,1.896-12.821,5.384-18.004,10.57l5.137,5.146c5.344-5.341,12.015-8.508,18.952-9.627  L38.29,40.83z" fill="#616161"/><path d="M26.946,29.488C20.801,32.223,15.039,36.076,10,41.115l5.139,5.142c5.095-5.093,11.04-8.807,17.379-11.197  L26.946,29.488z" fill="#616161"/></svg>